<svg width="280" height="70" viewBox="0 0 280 70" fill="none" xmlns="http://www.w3.org/2000/svg">
<g clip-path="url(#clip0_377_634)">
<path d="M115.032 33.8841V31.9599C115.032 31.8262 115.087 31.7059 115.196 31.5991C115.305 31.4654 115.442 31.3987 115.605 31.3987H123.466V9.99196H115.605C115.223 9.99196 115.032 9.80489 115.032 9.43074V7.50654C115.032 7.13238 115.223 6.94531 115.605 6.94531H134.396C134.779 6.94531 134.97 7.13238 134.97 7.50654V9.43074C134.97 9.80489 134.779 9.99196 134.396 9.99196H126.577V31.3987H134.396C134.56 31.3987 134.697 31.4654 134.806 31.5991C134.915 31.7059 134.97 31.8262 134.97 31.9599V33.8841C134.97 34.2583 134.779 34.4453 134.396 34.4453H115.605C115.223 34.4453 115.032 34.2583 115.032 33.8841ZM160.977 33.8841V22.379L146.116 10.3527V33.8841C146.116 34.2583 145.925 34.4453 145.543 34.4453H143.578C143.441 34.4453 143.305 34.3918 143.168 34.285C143.059 34.1781 143.004 34.0444 143.004 33.8841V7.50654C143.004 7.34619 143.059 7.21256 143.168 7.10566C143.305 6.99877 143.441 6.94531 143.578 6.94531H146.321C146.703 6.94531 147.044 7.06558 147.344 7.3061L160.977 18.3302V7.50654C160.977 7.13238 161.168 6.94531 161.55 6.94531H163.515C163.897 6.94531 164.088 7.13238 164.088 7.50654V33.8841C164.088 34.2583 163.897 34.4453 163.515 34.4453H161.55C161.168 34.4453 160.977 34.2583 160.977 33.8841ZM192.633 14.6421C192.633 15.0163 192.442 15.2033 192.059 15.2033H190.094C189.714 15.2033 189.521 15.0163 189.521 14.6421V12.758C189.495 11.983 189.209 11.3282 188.663 10.7937C188.116 10.2592 187.448 9.99196 186.656 9.99196H177.527C176.736 9.99196 176.053 10.2726 175.48 10.8338C174.934 11.3683 174.661 12.0231 174.661 12.7981V28.5925C174.661 29.3676 174.934 30.0357 175.48 30.5969C176.053 31.1315 176.736 31.3987 177.527 31.3987H186.656C187.448 31.3987 188.116 31.1447 188.663 30.637C189.209 30.1024 189.495 29.4478 189.521 28.6727V26.7485C189.521 26.6148 189.576 26.4946 189.685 26.3877C189.795 26.254 189.931 26.1873 190.094 26.1873H192.059C192.223 26.1873 192.36 26.254 192.469 26.3877C192.579 26.4946 192.633 26.6148 192.633 26.7485V28.6727C192.633 29.4745 192.469 30.2227 192.141 30.9176C191.814 31.6125 191.378 32.2271 190.831 32.7616C190.313 33.2694 189.685 33.6837 188.948 34.0044C188.24 34.2984 187.475 34.4453 186.656 34.4453H177.527C176.708 34.4453 175.93 34.2984 175.193 34.0044C174.484 33.6837 173.856 33.2694 173.31 32.7616C172.792 32.2271 172.369 31.5991 172.041 30.8775C171.741 30.156 171.591 29.3943 171.591 28.5925V12.7981C171.591 11.9963 171.741 11.248 172.041 10.5532C172.369 9.83161 172.792 9.20358 173.31 8.66907C173.856 8.13457 174.484 7.72034 175.193 7.42636C175.93 7.10566 176.708 6.94531 177.527 6.94531H186.656C187.475 6.94531 188.24 7.10566 188.948 7.42636C189.685 7.72034 190.313 8.13457 190.831 8.66907C191.378 9.17684 191.814 9.79152 192.141 10.5131C192.469 11.208 192.633 11.9562 192.633 12.758V14.6421ZM206.072 34.4453C205.253 34.4453 204.476 34.2984 203.739 34.0044C203.029 33.6837 202.401 33.2694 201.856 32.7616C201.336 32.2271 200.914 31.5991 200.586 30.8775C200.285 30.156 200.137 29.3943 200.137 28.5925V12.7981C200.137 11.9963 200.285 11.248 200.586 10.5532C200.914 9.83161 201.336 9.20358 201.856 8.66907C202.401 8.13457 203.029 7.72034 203.739 7.42636C204.476 7.10566 205.253 6.94531 206.072 6.94531H215.202C216.021 6.94531 216.785 7.10566 217.495 7.42636C218.232 7.72034 218.872 8.13457 219.418 8.66907C219.965 9.20358 220.387 9.83161 220.688 10.5532C221.016 11.248 221.18 11.9963 221.18 12.7981V28.5925C221.18 29.3943 221.016 30.156 220.688 30.8775C220.387 31.5991 219.965 32.2271 219.418 32.7616C218.872 33.2694 218.232 33.6837 217.495 34.0044C216.785 34.2984 216.021 34.4453 215.202 34.4453H206.072ZM206.072 9.99196C205.28 9.99196 204.598 10.2726 204.025 10.8338C203.479 11.3683 203.206 12.0231 203.206 12.7981V28.5925C203.206 29.3676 203.479 30.0357 204.025 30.5969C204.598 31.1315 205.28 31.3987 206.072 31.3987H215.202C215.993 31.3987 216.661 31.1315 217.208 30.5969C217.781 30.0357 218.068 29.3676 218.068 28.5925V12.7981C218.068 12.0231 217.781 11.3683 217.208 10.8338C216.661 10.2726 215.993 9.99196 215.202 9.99196H206.072ZM228.64 33.8841V7.50654C228.64 7.37291 228.695 7.25264 228.804 7.14575C228.941 7.01212 229.078 6.94531 229.213 6.94531H243.747C244.566 6.94531 245.33 7.10566 246.04 7.42636C246.777 7.72034 247.419 8.13457 247.963 8.66907C248.51 9.20358 248.932 9.83161 249.233 10.5532C249.561 11.248 249.725 11.9963 249.725 12.7981V28.5925C249.725 29.3943 249.561 30.156 249.233 30.8775C248.932 31.5991 248.51 32.2271 247.963 32.7616C247.419 33.2694 246.777 33.6837 246.04 34.0044C245.33 34.2984 244.566 34.4453 243.747 34.4453H229.213C229.078 34.4453 228.941 34.3918 228.804 34.285C228.695 34.1781 228.64 34.0444 228.64 33.8841ZM231.751 31.3987H243.747C244.54 31.3987 245.208 31.1315 245.752 30.5969C246.326 30.0357 246.613 29.3676 246.613 28.5925V12.7981C246.613 12.0231 246.326 11.3683 245.752 10.8338C245.208 10.2726 244.54 9.99196 243.747 9.99196H231.751V31.3987ZM257.842 33.8841V7.50654C257.842 7.13238 258.032 6.94531 258.415 6.94531H277.493C277.873 6.94531 278.066 7.13238 278.066 7.50654V9.43074C278.066 9.80489 277.873 9.99196 277.493 9.99196H260.911V19.172H275.282C275.417 19.172 275.541 19.2387 275.649 19.3724C275.786 19.4793 275.855 19.5995 275.855 19.7332V21.6574C275.855 21.8178 275.786 21.9515 275.649 22.0583C275.541 22.1651 275.417 22.2186 275.282 22.2186H260.911V31.3987H277.493C277.656 31.3987 277.792 31.4654 277.902 31.5991C278.011 31.7059 278.066 31.8262 278.066 31.9599V33.8841C278.066 34.2583 277.873 34.4453 277.493 34.4453H258.415C258.032 34.4453 257.842 34.2583 257.842 33.8841Z" fill="#FDFDFD"/>
<path d="M120.014 62.7531V49.4797H115.351C115.138 49.4797 115.032 49.3758 115.032 49.1679V48.0989C115.032 47.891 115.138 47.7871 115.351 47.7871H126.407C126.62 47.7871 126.726 47.891 126.726 48.0989V49.1679C126.726 49.3758 126.62 49.4797 126.407 49.4797H121.743V62.7531C121.743 62.8422 121.706 62.9165 121.63 62.9758C121.569 63.0351 121.501 63.0649 121.425 63.0649H120.333C120.121 63.0649 120.014 62.961 120.014 62.7531ZM131.236 62.7531V48.0989C131.236 47.891 131.342 47.7871 131.555 47.7871H142.156C142.368 47.7871 142.474 47.891 142.474 48.0989V49.1679C142.474 49.3758 142.368 49.4797 142.156 49.4797H132.942V54.5797H140.927C141.003 54.5797 141.072 54.6168 141.132 54.6911C141.208 54.7504 141.246 54.8172 141.246 54.8915V55.9605C141.246 56.0496 141.208 56.1239 141.132 56.1832C141.072 56.2425 141.003 56.2723 140.927 56.2723H132.942V61.3723H142.156C142.247 61.3723 142.323 61.4094 142.383 61.4837C142.444 61.543 142.474 61.6098 142.474 61.6841V62.7531C142.474 62.961 142.368 63.0649 142.156 63.0649H131.555C131.342 63.0649 131.236 62.961 131.236 62.7531ZM158.429 52.0631C158.429 52.271 158.322 52.3749 158.11 52.3749H157.018C156.806 52.3749 156.7 52.271 156.7 52.0631V51.0164C156.684 50.5857 156.525 50.2221 156.222 49.9251C155.919 49.6281 155.547 49.4797 155.107 49.4797H150.034C149.594 49.4797 149.215 49.6356 148.896 49.9474C148.593 50.2444 148.441 50.608 148.441 51.0386V59.8133C148.441 60.244 148.593 60.6151 148.896 60.9269C149.215 61.2239 149.594 61.3723 150.034 61.3723H155.107C155.547 61.3723 155.919 61.2312 156.222 60.9492C156.525 60.6522 156.684 60.2885 156.7 59.8579V58.7889C156.7 58.7146 156.73 58.6478 156.791 58.5885C156.851 58.5142 156.927 58.4771 157.018 58.4771H158.11C158.201 58.4771 158.277 58.5142 158.338 58.5885C158.398 58.6478 158.429 58.7146 158.429 58.7889V59.8579C158.429 60.3033 158.338 60.719 158.156 61.1051C157.974 61.4911 157.731 61.8325 157.428 62.1295C157.139 62.4116 156.791 62.6417 156.381 62.8199C155.987 62.9833 155.562 63.0649 155.107 63.0649H150.034C149.579 63.0649 149.147 62.9833 148.737 62.8199C148.343 62.6417 147.994 62.4116 147.691 62.1295C147.403 61.8325 147.167 61.4837 146.985 61.0828C146.819 60.6819 146.735 60.2588 146.735 59.8133V51.0386C146.735 50.5932 146.819 50.1776 146.985 49.7915C147.167 49.3906 147.403 49.0418 147.691 48.7448C147.994 48.4478 148.343 48.2177 148.737 48.0544C149.147 47.8762 149.579 47.7871 150.034 47.7871H155.107C155.562 47.7871 155.987 47.8762 156.381 48.0544C156.791 48.2177 157.139 48.4478 157.428 48.7448C157.731 49.0268 157.974 49.3683 158.156 49.7692C158.338 50.1553 158.429 50.571 158.429 51.0164V52.0631ZM172.562 62.7531V56.2723H164.304V62.7531C164.304 62.961 164.198 63.0649 163.986 63.0649H162.916C162.704 63.0649 162.598 62.961 162.598 62.7531V48.0989C162.598 47.891 162.704 47.7871 162.916 47.7871H163.986C164.198 47.7871 164.304 47.891 164.304 48.0989V54.5797H172.562V48.0989C172.562 47.891 172.668 47.7871 172.881 47.7871H173.973C174.185 47.7871 174.291 47.891 174.291 48.0989V62.7531C174.291 62.961 174.185 63.0649 173.973 63.0649H172.881C172.668 63.0649 172.562 62.961 172.562 62.7531Z" fill="#FDFDFD"/>
<path d="M187.051 59.8055V58.7811C187.051 58.7068 187.081 58.64 187.142 58.5806C187.218 58.5063 187.294 58.4693 187.37 58.4693H188.464C188.555 58.4693 188.631 58.5063 188.692 58.5806C188.753 58.64 188.783 58.7068 188.783 58.7811V59.8055C188.783 60.2362 188.935 60.6073 189.239 60.9191C189.558 61.2161 189.938 61.3645 190.379 61.3645H195.461C195.902 61.3645 196.274 61.2161 196.579 60.9191C196.898 60.6073 197.056 60.2362 197.056 59.8055V57.8234C197.056 57.3928 196.898 57.0292 196.579 56.7322C196.274 56.4204 195.902 56.2645 195.461 56.2645H190.379C189.923 56.2645 189.49 56.1829 189.079 56.0195C188.684 55.8413 188.335 55.6111 188.031 55.3291C187.727 55.0321 187.484 54.6832 187.301 54.2824C187.134 53.8815 187.051 53.4584 187.051 53.0129V51.0308C187.051 50.5854 187.134 50.1698 187.301 49.7837C187.484 49.3828 187.727 49.0339 188.031 48.7369C188.335 48.4399 188.684 48.2099 189.079 48.0465C189.49 47.8684 189.923 47.7793 190.379 47.7793H195.461C195.917 47.7793 196.342 47.8684 196.737 48.0465C197.148 48.2099 197.505 48.4399 197.809 48.7369C198.112 49.0339 198.347 49.3828 198.515 49.7837C198.697 50.1698 198.789 50.5854 198.789 51.0308V52.0553C198.789 52.2632 198.683 52.3671 198.47 52.3671H197.375C197.162 52.3671 197.056 52.2632 197.056 52.0553V51.0308C197.056 50.6002 196.898 50.2366 196.579 49.9396C196.274 49.6278 195.902 49.4719 195.461 49.4719H190.379C189.938 49.4719 189.558 49.6278 189.239 49.9396C188.935 50.2366 188.783 50.6002 188.783 51.0308V53.0129C188.783 53.4436 188.935 53.8147 189.239 54.1265C189.558 54.4235 189.938 54.5719 190.379 54.5719H195.461C195.917 54.5719 196.342 54.661 196.737 54.8391C197.148 55.0025 197.505 55.2325 197.809 55.5295C198.112 55.8265 198.347 56.1754 198.515 56.5763C198.697 56.9624 198.789 57.378 198.789 57.8234V59.8055C198.789 60.251 198.697 60.6741 198.515 61.075C198.347 61.4758 198.112 61.8247 197.809 62.1217C197.505 62.4037 197.148 62.6339 196.737 62.8121C196.342 62.9755 195.917 63.0571 195.461 63.0571H190.379C189.923 63.0571 189.49 62.9755 189.079 62.8121C188.684 62.6339 188.335 62.4037 188.031 62.1217C187.727 61.8247 187.484 61.4758 187.301 61.075C187.134 60.6741 187.051 60.251 187.051 59.8055ZM214.681 52.0553C214.681 52.2632 214.573 52.3671 214.362 52.3671H213.268C213.054 52.3671 212.949 52.2632 212.949 52.0553V51.0086C212.932 50.5779 212.774 50.2143 212.469 49.9173C212.167 49.6203 211.793 49.4719 211.353 49.4719H206.27C205.83 49.4719 205.449 49.6278 205.13 49.9396C204.828 50.2366 204.674 50.6002 204.674 51.0308V59.8055C204.674 60.2362 204.828 60.6073 205.13 60.9191C205.449 61.2161 205.83 61.3645 206.27 61.3645H211.353C211.793 61.3645 212.167 61.2234 212.469 60.9413C212.774 60.6443 212.932 60.2807 212.949 59.8501V58.7811C212.949 58.7068 212.978 58.64 213.04 58.5806C213.1 58.5063 213.177 58.4693 213.268 58.4693H214.362C214.453 58.4693 214.528 58.5063 214.59 58.5806C214.65 58.64 214.681 58.7068 214.681 58.7811V59.8501C214.681 60.2955 214.59 60.7112 214.407 61.0972C214.225 61.4833 213.981 61.8247 213.678 62.1217C213.388 62.4037 213.04 62.6339 212.63 62.8121C212.234 62.9755 211.809 63.0571 211.353 63.0571H206.27C205.814 63.0571 205.382 62.9755 204.972 62.8121C204.576 62.6339 204.226 62.4037 203.923 62.1217C203.633 61.8247 203.398 61.4758 203.216 61.075C203.05 60.6741 202.966 60.251 202.966 59.8055V51.0308C202.966 50.5854 203.05 50.1698 203.216 49.7837C203.398 49.3828 203.633 49.0339 203.923 48.7369C204.226 48.4399 204.576 48.2099 204.972 48.0465C205.382 47.8684 205.814 47.7793 206.27 47.7793H211.353C211.809 47.7793 212.234 47.8684 212.63 48.0465C213.04 48.2099 213.388 48.4399 213.678 48.7369C213.981 49.019 214.225 49.3605 214.407 49.7614C214.59 50.1475 214.681 50.5631 214.681 51.0086V52.0553ZM228.841 62.7453V56.2645H220.567V62.7453C220.567 62.9532 220.461 63.0571 220.248 63.0571H219.177C218.964 63.0571 218.858 62.9532 218.858 62.7453V48.0911C218.858 47.8832 218.964 47.7793 219.177 47.7793H220.248C220.461 47.7793 220.567 47.8832 220.567 48.0911V54.5719H228.841V48.0911C228.841 47.8832 228.947 47.7793 229.16 47.7793H230.254C230.466 47.7793 230.573 47.8832 230.573 48.0911V62.7453C230.573 62.9532 230.466 63.0571 230.254 63.0571H229.16C228.947 63.0571 228.841 62.9532 228.841 62.7453ZM238.033 63.0571C237.577 63.0571 237.143 62.9755 236.732 62.8121C236.339 62.6339 235.989 62.4037 235.684 62.1217C235.396 61.8247 235.161 61.4758 234.978 61.075C234.811 60.6741 234.727 60.251 234.727 59.8055V51.0308C234.727 50.5854 234.811 50.1698 234.978 49.7837C235.161 49.3828 235.396 49.0339 235.684 48.7369C235.989 48.4399 236.339 48.2099 236.732 48.0465C237.143 47.8684 237.577 47.7793 238.033 47.7793H243.114C243.57 47.7793 243.997 47.8684 244.391 48.0465C244.801 48.2099 245.158 48.4399 245.463 48.7369C245.765 49.0339 246.002 49.3828 246.168 49.7837C246.351 50.1698 246.442 50.5854 246.442 51.0308V59.8055C246.442 60.251 246.351 60.6741 246.168 61.075C246.002 61.4758 245.765 61.8247 245.463 62.1217C245.158 62.4037 244.801 62.6339 244.391 62.8121C243.997 62.9755 243.57 63.0571 243.114 63.0571H238.033ZM238.033 49.4719C237.591 49.4719 237.212 49.6278 236.893 49.9396C236.588 50.2366 236.437 50.6002 236.437 51.0308V59.8055C236.437 60.2362 236.588 60.6073 236.893 60.9191C237.212 61.2161 237.591 61.3645 238.033 61.3645H243.114C243.555 61.3645 243.927 61.2161 244.232 60.9191C244.551 60.6073 244.71 60.2362 244.71 59.8055V51.0308C244.71 50.6002 244.551 50.2366 244.232 49.9396C243.927 49.6278 243.555 49.4719 243.114 49.4719H238.033ZM253.925 63.0571C253.469 63.0571 253.035 62.9755 252.625 62.8121C252.229 62.6339 251.881 62.4037 251.576 62.1217C251.288 61.8247 251.053 61.4758 250.871 61.075C250.703 60.6741 250.619 60.251 250.619 59.8055V51.0308C250.619 50.5854 250.703 50.1698 250.871 49.7837C251.053 49.3828 251.288 49.0339 251.576 48.7369C251.881 48.4399 252.229 48.2099 252.625 48.0465C253.035 47.8684 253.469 47.7793 253.925 47.7793H259.007C259.462 47.7793 259.887 47.8684 260.283 48.0465C260.693 48.2099 261.051 48.4399 261.355 48.7369C261.658 49.0339 261.893 49.3828 262.061 49.7837C262.243 50.1698 262.334 50.5854 262.334 51.0308V59.8055C262.334 60.251 262.243 60.6741 262.061 61.075C261.893 61.4758 261.658 61.8247 261.355 62.1217C261.051 62.4037 260.693 62.6339 260.283 62.8121C259.887 62.9755 259.462 63.0571 259.007 63.0571H253.925ZM253.925 49.4719C253.484 49.4719 253.104 49.6278 252.785 49.9396C252.481 50.2366 252.329 50.6002 252.329 51.0308V59.8055C252.329 60.2362 252.481 60.6073 252.785 60.9191C253.104 61.2161 253.484 61.3645 253.925 61.3645H259.007C259.448 61.3645 259.82 61.2161 260.124 60.9191C260.443 60.6073 260.602 60.2362 260.602 59.8055V51.0308C260.602 50.6002 260.443 50.2366 260.124 49.9396C259.82 49.6278 259.448 49.4719 259.007 49.4719H253.925ZM267.423 47.7793H268.517C268.73 47.7793 268.836 47.8832 268.836 48.0911V61.3645H277.747C277.838 61.3645 277.915 61.4016 277.975 61.4758C278.037 61.5352 278.066 61.602 278.066 61.6763V62.7453C278.066 62.9532 277.96 63.0571 277.747 63.0571H267.423C267.347 63.0571 267.272 63.0273 267.195 62.968C267.135 62.9087 267.104 62.8344 267.104 62.7453V48.0911C267.104 48.002 267.135 47.9277 267.195 47.8684C267.272 47.8091 267.347 47.7793 267.423 47.7793Z" fill="#FDFDFD"/>
<path fill-rule="evenodd" clip-rule="evenodd" d="M13.5512 63.8002L1.07043 35.4462C0.851997 34.95 0.854236 34.387 1.07661 33.8925L13.5463 6.16001C13.8633 5.455 14.5744 5 15.3606 5H87.5366C88.3227 5 89.0345 5.455 89.3516 6.16001L101.821 33.8925C102.044 34.387 102.046 34.95 101.827 35.4462L89.3467 63.8002C89.0332 64.5126 88.3173 64.9741 87.5254 64.9741H15.3725C14.5807 64.9741 13.8648 64.5126 13.5512 63.8002ZM20.5949 9.3776H31.9948C32.9069 9.3776 33.5378 10.2708 33.2167 11.1074L24.3499 34.2077C24.2395 34.4952 24.2383 34.8119 24.3467 35.1004L33.2338 58.7514C33.5477 59.5865 32.917 60.4729 32.0087 60.4729H20.6022C20.0811 60.4729 19.6098 60.1691 19.4035 59.7001L8.60395 35.1656C8.46018 34.839 8.46165 34.4685 8.60802 34.143L19.4003 10.1411C19.6089 9.67709 20.0776 9.3776 20.5949 9.3776ZM45.3868 9.3776H57.7938C58.5148 9.3776 59.0993 9.9504 59.0993 10.657V58.0826C59.0993 58.7892 58.5148 59.362 57.7938 59.362H45.3868C44.6658 59.362 44.0813 58.7892 44.0813 58.0826V10.657C44.0813 9.9504 44.6658 9.3776 45.3868 9.3776ZM82.5863 9.3776H71.1865C70.2743 9.3776 69.6434 10.2708 69.9646 11.1074L78.8314 34.2077C78.9418 34.4952 78.9429 34.8119 78.8346 35.1004L69.9474 58.7514C69.6335 59.5865 70.2643 60.4729 71.1725 60.4729H82.5791C83.1001 60.4729 83.5714 60.1691 83.7777 59.7001L94.5774 35.1656C94.7212 34.839 94.7197 34.4685 94.5733 34.143L83.781 10.1411C83.5724 9.67709 83.1037 9.3776 82.5863 9.3776Z" fill="#FDFDFD"/>
</g>
<defs>
<clipPath id="clip0_377_634">
<rect width="279" height="70" fill="white" transform="translate(0.908203)"/>
</clipPath>
</defs>
</svg>
